<svg viewBox="0 0 376 96" xmlns="http://www.w3.org/2000/svg" style="fill-rule:evenodd;clip-rule:evenodd;">
  <path d="M376,96l-376,0l0,-96l376,0c0,32 0,64 0,96ZM9.478,9.532l0,76.936l357.044,0l0,-76.936c-110.126,0 -246.918,0 -357.044,0Z" style="fill:#2d2d2d;"/>
  <path d="M114.548,36.796c-1.022,-1.252 -2.277,-2.213 -3.766,-2.883c-1.489,-0.671 -3.211,-1.006 -5.167,-1.006c-1.956,0 -3.767,0.38 -5.433,1.14c-1.667,0.76 -3.111,1.821 -4.334,3.184c-1.222,1.364 -2.177,2.984 -2.866,4.861c-0.689,1.877 -1.034,3.911 -1.034,6.101c0,2.235 0.345,4.28 1.034,6.135c0.689,1.855 1.633,3.464 2.833,4.827c1.2,1.364 2.611,2.425 4.233,3.185c1.623,0.76 3.367,1.14 5.234,1.14c2.133,0 4.022,-0.447 5.666,-1.341c1.645,-0.894 3,-2.146 4.067,-3.755l8.667,6.504c-2,2.816 -4.534,4.894 -7.6,6.235c-3.067,1.341 -6.223,2.011 -9.467,2.011c-3.689,0 -7.089,-0.581 -10.2,-1.743c-3.111,-1.162 -5.8,-2.827 -8.067,-4.995c-2.266,-2.168 -4.033,-4.794 -5.3,-7.878c-1.266,-3.084 -1.9,-6.525 -1.9,-10.325c0,-3.799 0.634,-7.241 1.9,-10.325c1.267,-3.084 3.034,-5.71 5.3,-7.878c2.267,-2.167 4.956,-3.832 8.067,-4.994c3.111,-1.163 6.511,-1.744 10.2,-1.744c1.333,0 2.722,0.123 4.167,0.369c1.444,0.246 2.866,0.637 4.266,1.173c1.4,0.537 2.745,1.252 4.034,2.146c1.289,0.894 2.444,1.989 3.466,3.285l-8,6.571Z" style="fill:#2d2d2d;"/>
  <path d="M154.882,24.459l8.6,0l20.533,47.468l-11.733,0l-4.067,-10.056l-18.333,0l-3.934,10.056l-11.466,0l20.4,-47.468ZM158.882,38.271l-5.734,14.75l11.534,0l-5.8,-14.75Z" style="fill:#2d2d2d;"/>
  <path d="M222.748,36.058c-0.844,-1.073 -1.989,-1.866 -3.433,-2.38c-1.444,-0.514 -2.811,-0.771 -4.1,-0.771c-0.756,0 -1.533,0.089 -2.333,0.268c-0.8,0.179 -1.556,0.458 -2.267,0.838c-0.711,0.38 -1.289,0.883 -1.733,1.509c-0.445,0.625 -0.667,1.385 -0.667,2.279c0,1.431 0.533,2.526 1.6,3.285c1.067,0.76 2.411,1.408 4.033,1.945c1.623,0.536 3.367,1.073 5.234,1.609c1.866,0.536 3.611,1.296 5.233,2.279c1.622,0.984 2.967,2.302 4.033,3.956c1.067,1.654 1.6,3.866 1.6,6.638c0,2.637 -0.489,4.939 -1.466,6.905c-0.978,1.967 -2.3,3.598 -3.967,4.895c-1.667,1.296 -3.6,2.257 -5.8,2.883c-2.2,0.625 -4.522,0.938 -6.967,0.938c-3.066,0 -5.911,-0.469 -8.533,-1.408c-2.622,-0.938 -5.067,-2.458 -7.333,-4.559l7.4,-8.179c1.066,1.43 2.411,2.536 4.033,3.318c1.622,0.783 3.3,1.174 5.033,1.174c0.845,0 1.7,-0.101 2.567,-0.302c0.867,-0.201 1.644,-0.503 2.333,-0.905c0.689,-0.402 1.245,-0.916 1.667,-1.542c0.422,-0.626 0.633,-1.363 0.633,-2.213c0,-1.43 -0.544,-2.559 -1.633,-3.385c-1.089,-0.827 -2.456,-1.531 -4.1,-2.112c-1.644,-0.581 -3.422,-1.163 -5.333,-1.744c-1.911,-0.581 -3.689,-1.363 -5.334,-2.346c-1.644,-0.983 -3.011,-2.28 -4.1,-3.889c-1.089,-1.609 -1.633,-3.732 -1.633,-6.369c0,-2.548 0.5,-4.783 1.5,-6.705c1,-1.922 2.333,-3.531 4,-4.827c1.667,-1.296 3.589,-2.268 5.767,-2.916c2.177,-0.649 4.422,-0.973 6.733,-0.973c2.667,0 5.244,0.38 7.733,1.14c2.489,0.76 4.734,2.034 6.734,3.822l-7.134,7.844Z" style="fill:#2d2d2d;"/>
  <path d="M247.415,24.459l10.4,0l0,19.712l18.333,-19.712l13.6,0l-21,22.058l22.8,25.41l-14.533,0l-19.2,-22.527l0,22.527l-10.4,0l0,-47.468Z" style="fill:#2d2d2d;"/>
</svg>
